<?xml version="1.0" encoding="utf-8"?>
<!-- Generator: Adobe Illustrator 16.0.3, SVG Export Plug-In . SVG Version: 6.00 Build 0)  -->
<!DOCTYPE svg PUBLIC "-//W3C//DTD SVG 1.1//EN" "http://www.w3.org/Graphics/SVG/1.1/DTD/svg11.dtd">
<svg version="1.1" id="レイヤー_1" xmlns="http://www.w3.org/2000/svg" xmlns:xlink="http://www.w3.org/1999/xlink" x="0px"
	 y="0px" width="1441px" height="1441px" viewBox="0 0 1441 1441" enable-background="new 0 0 1441 1441" xml:space="preserve">
<g display="none">
	<path display="inline" fill="#FFFFFF" d="M1324,706.102c0,13.812-11.203,25.017-25.023,25.017h-288.839
		c-13.819,0-25.022-11.203-25.022-25.017l0,0c0-13.819,11.203-25.022,25.022-25.022h288.839
		C1312.797,681.078,1324,692.281,1324,706.102L1324,706.102z"/>
	<path display="inline" fill="#FFFFFF" d="M1324,806.5c0,13.82-11.203,25.023-25.023,25.023h-288.839
		c-13.819,0-25.022-11.203-25.022-25.023l0,0c0-13.82,11.203-25.023,25.022-25.023h288.839C1312.797,781.477,1324,792.68,1324,806.5
		L1324,806.5z"/>
	<g display="inline">
		<path fill="#FFFFFF" d="M1124.734,591.092c0,12.941-10.49,23.432-23.432,23.432H810.545c-12.939,0-23.431-10.49-23.431-23.432l0,0
			c0-12.939,10.489-23.431,23.431-23.431h290.759C1114.244,567.661,1124.734,578.152,1124.734,591.092L1124.734,591.092z"/>
		<circle fill="#FFFFFF" cx="1052" cy="547.4" r="39.001"/>
	</g>
	<circle display="inline" fill="#FFFFFF" cx="993.059" cy="298.5" r="32.501"/>
	<g display="inline">
		<path fill="#FFFFFF" d="M1245,427.5c0,13.82-11.203,25.023-25.023,25.023H931.138c-13.819,0-25.022-11.203-25.022-25.023l0,0
			c0-13.82,11.203-25.023,25.022-25.023h288.839C1233.797,402.477,1245,413.68,1245,427.5L1245,427.5z"/>
		<circle fill="#FFFFFF" cx="812.877" cy="427.5" r="27.263"/>
	</g>
	<g display="inline">
		<path fill="#FFFFFF" d="M1245,930.5c0,13.82-11.203,25.023-25.023,25.023H931.138c-13.819,0-25.022-11.203-25.022-25.023l0,0
			c0-13.82,11.203-25.023,25.022-25.023h288.839C1233.797,905.477,1245,916.68,1245,930.5L1245,930.5z"/>
		<circle fill="#FFFFFF" cx="812.877" cy="930.5" r="27.263"/>
	</g>
</g>
<g>
	<polygon points="1350.937,0 1350.937,1260.875 0,1260.875 0,1441 1441,1441 1441,0 	"/>
	<path d="M1260.875,180.125V0h-90.063v90.063h-90.063V0H0v1170.812h1260.875v-90.062H990.688v-90.062h270.185v-90.063H1080.75
		v-90.063h180.125V720.5H1080.75v-90.062h180.125v-90.063H810.562V450.31h360.249v-90.06h90.065v-90.063H990.688v-90.062
		L1260.875,180.125L1260.875,180.125z M900.625,990.688v90.062h-90.062v-90.062H900.625z M900.625,270.187h-90.062v-90.062h90.062
		V270.187z"/>
</g>
</svg>
