<?xml version="1.0" encoding="utf-8"?>
<!-- Generator: Adobe Illustrator 18.1.1, SVG Export Plug-In . SVG Version: 6.00 Build 0)  -->
<!DOCTYPE svg PUBLIC "-//W3C//DTD SVG 1.1//EN" "http://www.w3.org/Graphics/SVG/1.1/DTD/svg11.dtd">
<svg version="1.1" id="レイヤー_1" xmlns="http://www.w3.org/2000/svg" xmlns:xlink="http://www.w3.org/1999/xlink" x="0px"
	 y="0px" viewBox="0 0 702 560" enable-background="new 0 0 702 560" xml:space="preserve">
<rect y="315.5" width="703" height="244.5"/>
<g>
	<g>
		<polygon points="181,133.7 181,104.6 129.3,133.7 		"/>
	</g>
	<g>
		<polygon points="72.1,133.7 102,133.7 72.1,58.9 		"/>
	</g>
	<polygon points="72.1,24.8 72.1,53.1 111.8,133.7 181,101.6 181,24.8 	"/>
</g>
<g>
	<rect x="-147.9" y="24.8" width="108.9" height="108.9"/>
</g>
<g>
	<polygon fill="#FFFFFF" points="-147.9,32.3 -147.9,58.9 -113,146.2 -39,104.6 -39,32.3 	"/>
</g>
<g>
	<polygon points="-147.9,24.8 -147.9,53.1 -108.2,133.7 -39,101.6 -39,24.8 	"/>
</g>
<g>
	<path d="M185.7,104.6h4.8v29.1h-4.8V104.6z"/>
	<path d="M194.5,104.8h5.2v4.6h-5.2V104.8z M194.7,112.6h4.8v21h-4.8V112.6z"/>
	<path d="M203.4,112.6h4.8v3.2c1.4-1.9,3.2-3.6,6.4-3.6c3,0,5.2,1.5,6.3,3.7c1.7-2.2,3.9-3.7,7.1-3.7c4.6,0,7.4,2.9,7.4,8v13.4h-4.8
		v-11.9c0-3.3-1.6-5.1-4.3-5.1c-2.6,0-4.5,1.8-4.5,5.2v11.9H217v-12c0-3.3-1.6-5.1-4.3-5.1c-2.7,0-4.5,2-4.5,5.2v11.9h-4.8V112.6z"
		/>
	<path d="M243.3,130.4v3.3h-4.8v-29.1h4.8v11.5c1.6-2.2,3.7-3.9,7.2-3.9c4.9,0,9.8,3.9,9.8,10.9v0.1c0,7-4.8,10.9-9.8,10.9
		C246.9,134.1,244.7,132.4,243.3,130.4z M255.3,123.2L255.3,123.2c0-4.1-2.7-6.8-6-6.8s-6.1,2.7-6.1,6.7v0.1c0,4,2.9,6.7,6.1,6.7
		C252.6,129.9,255.3,127.3,255.3,123.2z"/>
	<path d="M262.1,104.8h5.2v4.6h-5.2V104.8z M262.3,112.6h4.8v21h-4.8V112.6z"/>
	<path d="M269,123.3L269,123.3c0-6.1,4.6-11.1,11-11.1c3.9,0,6.4,1.5,8.4,3.6l-3,3.2c-1.5-1.6-3-2.6-5.4-2.6c-3.5,0-6.1,3-6.1,6.7
		v0.1c0,3.7,2.6,6.7,6.3,6.7c2.3,0,3.9-1,5.5-2.6l2.9,2.9c-2.1,2.3-4.5,3.9-8.6,3.9C273.7,134.1,269,129.2,269,123.3z"/>
</g>
<g>
	<g>
		<polygon fill="#FFFFFF" points="72.1,487.2 102,487.2 72.1,412.4 		"/>
	</g>
	<g>
		<polygon fill="#FFFFFF" points="181,487.2 181,458.1 129.3,487.2 		"/>
	</g>
	<polygon fill="#FFFFFF" points="72.1,378.3 72.1,406.6 111.8,487.2 181,455.1 181,378.3 	"/>
</g>
<g>
	<path fill="#FFFFFF" d="M185.7,458.1h4.8v29.1h-4.8V458.1z"/>
	<path fill="#FFFFFF" d="M194.5,458.3h5.2v4.6h-5.2V458.3z M194.7,466.1h4.8v21h-4.8V466.1z"/>
	<path fill="#FFFFFF" d="M203.4,466.1h4.8v3.2c1.4-1.9,3.2-3.6,6.4-3.6c3,0,5.2,1.5,6.3,3.7c1.7-2.2,3.9-3.7,7.1-3.7
		c4.6,0,7.4,2.9,7.4,8v13.4h-4.8v-11.9c0-3.3-1.6-5.1-4.3-5.1c-2.6,0-4.5,1.8-4.5,5.2v11.9H217v-12c0-3.3-1.6-5.1-4.3-5.1
		c-2.7,0-4.5,2-4.5,5.2v11.9h-4.8V466.1z"/>
	<path fill="#FFFFFF" d="M243.3,483.9v3.3h-4.8v-29.1h4.8v11.5c1.6-2.2,3.7-3.9,7.2-3.9c4.9,0,9.8,3.9,9.8,10.9v0.1
		c0,7-4.8,10.9-9.8,10.9C246.9,487.6,244.7,485.9,243.3,483.9z M255.3,476.7L255.3,476.7c0-4.1-2.7-6.8-6-6.8s-6.1,2.7-6.1,6.7v0.1
		c0,4,2.9,6.7,6.1,6.7C252.6,483.4,255.3,480.8,255.3,476.7z"/>
	<path fill="#FFFFFF" d="M262.1,458.3h5.2v4.6h-5.2V458.3z M262.3,466.1h4.8v21h-4.8V466.1z"/>
	<path fill="#FFFFFF" d="M269,476.8L269,476.8c0-6.1,4.6-11.1,11-11.1c3.9,0,6.4,1.5,8.4,3.6l-3,3.2c-1.5-1.6-3-2.6-5.4-2.6
		c-3.5,0-6.1,3-6.1,6.7v0.1c0,3.7,2.6,6.7,6.3,6.7c2.3,0,3.9-1,5.5-2.6l2.9,2.9c-2.1,2.3-4.5,3.9-8.6,3.9
		C273.7,487.6,269,482.7,269,476.8z"/>
</g>
<polygon points="72.1,189.4 72.1,195.2 107,282.6 181,241 181,238 111.8,270 "/>
<g>
	<path d="M185.7,240.9h4.8V270h-4.8V240.9z"/>
	<path d="M194.5,241.2h5.2v4.6h-5.2V241.2z M194.7,249h4.8v21h-4.8V249z"/>
	<path d="M203.4,249h4.8v3.2c1.4-1.9,3.2-3.6,6.4-3.6c3,0,5.2,1.5,6.3,3.7c1.7-2.2,3.9-3.7,7.1-3.7c4.6,0,7.4,2.9,7.4,8V270h-4.8
		v-11.9c0-3.3-1.6-5.1-4.3-5.1c-2.6,0-4.5,1.8-4.5,5.2V270H217v-12c0-3.3-1.6-5.1-4.3-5.1c-2.7,0-4.5,2-4.5,5.2V270h-4.8V249z"/>
	<path d="M243.3,266.7v3.3h-4.8v-29.1h4.8v11.5c1.6-2.2,3.7-3.9,7.2-3.9c4.9,0,9.8,3.9,9.8,10.9v0.1c0,7-4.8,10.9-9.8,10.9
		C246.9,270.4,244.7,268.7,243.3,266.7z M255.3,259.5L255.3,259.5c0-4.1-2.7-6.8-6-6.8s-6.1,2.7-6.1,6.7v0.1c0,4,2.9,6.7,6.1,6.7
		C252.6,266.3,255.3,263.7,255.3,259.5z"/>
	<path d="M262.1,241.2h5.2v4.6h-5.2V241.2z M262.3,249h4.8v21h-4.8V249z"/>
	<path d="M269,259.6L269,259.6c0-6.1,4.6-11.1,11-11.1c3.9,0,6.4,1.5,8.4,3.6l-3,3.2c-1.5-1.6-3-2.6-5.4-2.6c-3.5,0-6.1,3-6.1,6.7
		v0.1c0,3.7,2.6,6.7,6.3,6.7c2.3,0,3.9-1,5.5-2.6l2.9,2.9c-2.1,2.3-4.5,3.9-8.6,3.9C273.7,270.5,269,265.6,269,259.6z"/>
</g>
</svg>
