<?xml version="1.0" encoding="utf-8"?>
<!-- Generator: Adobe Illustrator 19.0.1, SVG Export Plug-In . SVG Version: 6.00 Build 0)  -->
<!DOCTYPE svg PUBLIC "-//W3C//DTD SVG 1.1//EN" "http://www.w3.org/Graphics/SVG/1.1/DTD/svg11.dtd">
<svg version="1.1" xmlns="http://www.w3.org/2000/svg" xmlns:xlink="http://www.w3.org/1999/xlink" x="0px" y="0px" width="512px"
	 height="512px" viewBox="0 0 512 512" enable-background="new 0 0 512 512" xml:space="preserve">
<g id="レイヤー_1">
	<g id="circle-o">
	</g>
	<g id="新規シンボル_1_">
	</g>
	<g id="新規シンボル_2_">
	</g>
	<g id="新規シンボル_3_">
	</g>
	<g id="新規シンボル_6_">
	</g>
	<g id="新規シンボル_5_">
	</g>
	<g id="新規シンボル">
	</g>
	<g id="新規シンボル_4_">
	</g>
	<g id="circle-o_2_">
	</g>
	<g id="circle-o_3_">
	</g>
	<g id="circle-o_5_">
	</g>
	<g id="circle-o_4_">
	</g>
	<g id="circle-o_6_">
	</g>
	<g id="circle-o_1_">
	</g>
	<g>
		<path d="M250,200.3h-2.5v14.3h2.3c4.9,0,7.1-2.9,7.1-7.1C257,202.6,254.9,200.3,250,200.3z"/>
		<path d="M315.2,200c-3.8,0-5.3,3.2-5.3,7.4c0,4.2,1.6,7.4,5.3,7.4c3.8,0,5.3-3.2,5.3-7.4C320.5,203.2,319,200,315.2,200z"/>
		<path d="M178.5,200c-3.8,0-5.3,3.2-5.3,7.4c0,4.2,1.6,7.4,5.3,7.4c3.8,0,5.3-3.2,5.3-7.4C183.8,203.2,182.3,200,178.5,200z"/>
		<path d="M502.1,93.1c0-1.4,0-2.8,0-4.1c-0.1-2.8-0.3-5.8-0.8-8.6c-0.5-2.7-1.3-5.2-2.4-7.6c-1.2-2.4-2.8-4.6-4.7-6.4
			c-1.9-1.9-4-3.4-6.4-4.7c-2.4-1.2-4.9-2-7.7-2.5c-3-0.5-6.2-0.7-8.5-0.7l-4.2-0.1H44.5l-4.1,0.1c-2.4,0.1-5.5,0.2-8.6,0.8
			c-2.7,0.5-5.2,1.3-7.6,2.5c-2.4,1.2-4.5,2.8-6.4,4.7c-1.9,1.8-3.4,4-4.6,6.4c-1.2,2.3-2,4.8-2.5,7.6c-0.6,3-0.7,6.2-0.8,8.6
			c0,0.9-0.1,4.1-0.1,4.1v105.8c0,0,0,3.2,0.1,4.2c0.1,2.4,0.2,5.5,0.8,8.6c0.5,2.8,1.3,5.3,2.5,7.6c1.2,2.4,2.8,4.5,4.7,6.4
			c1.9,1.9,4,3.4,6.4,4.7c2.3,1.2,4.8,2,7.6,2.5c3,0.5,6,0.7,8.6,0.7c1.4,0,2.7,0.1,4.1,0.1l418,0l5,0c1.4,0,2.8,0,4.1-0.1
			c2.6-0.1,5.6-0.2,8.6-0.7c2.8-0.5,5.3-1.3,7.6-2.5c2.4-1.2,4.5-2.8,6.4-4.7c1.8-1.8,3.4-4,4.7-6.3c1.2-2.4,2-4.8,2.5-7.6
			c0.5-2.8,0.7-5.8,0.8-8.5c0-1.4,0-2.8,0-4.3c0-1.6,0-3.3,0-4.9V98.1C502.1,96.4,502.1,94.8,502.1,93.1z M245.5,91.9l0-0.6
			c0-1.1,0.6-2.1,1.5-2.7c0.5-0.3,1.1-0.5,1.8-0.5c0.7,0,1.3,0.2,1.8,0.6c0.9,0.6,1.4,1.6,1.5,2.7l1.4,65.2l-1.2,23.6l-0.1,2.6
			c0,0,0,0,0,0l0,0l0,0v0v0l0,0l0,0l0,0l0,0l0,0l0,0v0l0,0c0,0.9-0.4,1.7-1,2.3c-0.6,0.6-1.4,1-2.3,1c-1,0-1.9-0.5-2.5-1.2
			c-0.4-0.5-0.7-1.2-0.8-1.9c0,0,0-0.1,0-0.1c0,0-1.2-26.2-1.2-26.2L245.5,91.9z M224.4,99.6c0-1.6,1.3-2.8,2.8-2.8
			c1.5,0,2.8,1.2,2.8,2.8l1.7,56.9L230,183v0c0,1.6-1.3,2.8-2.8,2.8c-1.5,0-2.8-1.2-2.8-2.8l-1.5-26.5L224.4,99.6z M203.6,100
			c0-1.3,1.1-2.4,2.4-2.4c1.3,0,2.3,1,2.4,2.4l2,56.5l-2,26.9c0,0,0,0,0,0l0,0l0,0c-0.1,1.3-1.1,2.4-2.4,2.4c-1.3,0-2.3-1-2.4-2.4
			l-1.7-27C201.8,156.5,203.6,100,203.6,100z M173,130.4c0.1-1,0.8-1.7,1.7-1.7c0.9,0,1.7,0.7,1.7,1.7l2.4,26.1l-2.4,27.4
			c0,0,0,0,0,0l0,0l0,0c-0.1,1-0.8,1.7-1.7,1.7c-0.9,0-1.7-0.7-1.7-1.7l-2.1-27.4L173,130.4z M153,129.1c0.1-0.7,0.6-1.3,1.3-1.3
			c0.7,0,1.2,0.5,1.3,1.3l2.7,27.3l-2.7,26.4c-0.1,0.7-0.6,1.3-1.3,1.3c-0.7,0-1.2-0.5-1.3-1.3l-2.4-26.3
			C150.6,156.4,153,129.1,153,129.1z M135.8,170.5c-0.1,0.6-0.5,1-1,1c-0.5,0-1-0.4-1-1l-1.9-14l1.9-14.3c0.1-0.6,0.5-1,1-1
			c0.5,0,0.9,0.4,1,1l2.2,14.3L135.8,170.5z M144.2,180c-0.5,0-1-0.4-1.1-1l-2.5-22.5c0,0,2.5-23,2.5-23c0.1-0.6,0.5-1,1.1-1
			c0.5,0,1,0.4,1.1,1l2.9,23l-2.9,22.5C145.2,179.6,144.8,180,144.2,180z M155.7,219.5c-3.9,0-7.3-1.6-9.1-4.2l3.4-3
			c1.6,1.9,3.7,2.7,6,2.7c2.8,0,4.1-0.8,4.1-2.5c0-1.5-0.8-2.2-5.2-3.2c-4.3-1-7.3-2.4-7.3-7c0-4.2,3.7-6.8,8.3-6.8
			c3.6,0,6.3,1.4,8.5,3.7l-3.4,3.3c-1.5-1.5-3.2-2.4-5.3-2.4c-2.5,0-3.3,1.1-3.3,2.1c0,1.5,1,1.9,4.7,2.8c3.7,0.9,7.8,2.1,7.8,7.2
			C164.8,216.5,162,219.5,155.7,219.5z M164.5,185.1c-0.8,0-1.4-0.6-1.5-1.5l-2.3-27.2l2.3-28.1c0.1-0.8,0.7-1.5,1.5-1.5
			c0.8,0,1.4,0.6,1.5,1.5l2.6,28.1l-2.6,27.2C165.9,184.5,165.2,185.1,164.5,185.1z M178.5,219.5c-6.4,0-10.1-4.9-10.1-12
			c0-7.1,3.8-12,10.1-12c6.4,0,10.1,4.9,10.1,12C188.6,214.5,184.9,219.5,178.5,219.5z M187,183.9L187,183.9
			c-0.1,1.1-0.9,1.9-1.9,1.9c-1,0-1.9-0.8-1.9-1.9l-2-27.4c0,0,2-42.4,2-42.4c0.1-1.1,0.9-1.9,1.9-1.9c1,0,1.9,0.8,1.9,1.9l2.3,42.4
			L187,183.9z M191.3,156.6c0,0,1.9-52.1,1.9-52.1c0.1-1.2,1-2.1,2.2-2.1c1.2,0,2.1,0.9,2.2,2.1l2.1,52.1l-2.1,27.2l0,0
			c-0.1,1.2-1,2.1-2.2,2.1c-1.2,0-2.1-0.9-2.2-2.1L191.3,156.6z M212.1,208.8c0,6.8-3.5,10.7-9.5,10.7c-5.6,0-9.4-3.8-9.4-10.6
			v-13.1h4.7v13c0,3.7,1.8,6.1,4.8,6.1c3,0,4.8-2.3,4.8-6v-13.1h4.7V208.8z M213.9,183.3l-1.6-26.8l1.6-58.4c0-1.5,1.2-2.6,2.6-2.6
			c1.4,0,2.6,1.1,2.6,2.6l1.8,58.4l-1.8,26.8c0,0,0,0,0,0l0,0l0,0c0,1.4-1.2,2.6-2.6,2.6C215.1,185.8,214,184.7,213.9,183.3z
			 M236.9,219.1h-4.2l-8.6-12.7c-0.6-0.9-1.3-2-1.6-2.6c0,0.9,0.1,3.8,0.1,5.1v10.3H218v-23.3h4.5l8.3,12.3c0.6,0.9,1.3,2,1.6,2.6
			c0-0.9-0.1-3.8-0.1-5.1v-9.9h4.6V219.1z M241,182.9L241,182.9c0,1.7-1.4,3-3,3c-1.7,0-3-1.3-3-3l-1.4-26.4l1.4-54.8
			c0-1.7,1.4-3,3-3c1.7,0,3,1.3,3,3l1.5,54.8L241,182.9z M249.8,219.1h-7v-23.3h7.3c6.7,0,11.6,3.1,11.6,11.7
			C261.8,215.6,255.8,219.1,249.8,219.1z M264.6,156.5l-1.5,25.8v0v0c0,1.9-1.6,3.5-3.5,3.5c-1.9,0-3.5-1.6-3.5-3.4l-0.7-12.7
			l-0.7-13.1l1.4-70.8l0-0.4c0-1.1,0.5-2,1.3-2.7c0.6-0.5,1.4-0.8,2.2-0.8c0.6,0,1.2,0.2,1.8,0.5c1,0.6,1.7,1.7,1.7,3L264.6,156.5
			L264.6,156.5z M276.3,214.8c2.1,0,3.3-0.9,4.6-3l3.9,2.3c-1.6,3.3-4.4,5.3-8.6,5.3c-6.1,0-10.2-4.7-10.2-12c0-7.1,4.3-12,10.4-12
			c4.4,0,7.1,2.1,8.5,5.2l-4.3,2c-0.8-1.6-2.2-2.5-4.3-2.5c-3.5,0-5.5,3.1-5.5,7.4C270.7,211.6,272.8,214.8,276.3,214.8z
			 M302.9,219.1h-14v-23.3h4.7v18.7h9.4V219.1z M315.2,219.5c-6.4,0-10.1-4.9-10.1-12c0-7.1,3.8-12,10.1-12c6.4,0,10.1,4.9,10.1,12
			C325.3,214.5,321.6,219.5,315.2,219.5z M348.8,208.8c0,6.8-3.5,10.7-9.5,10.7c-5.6,0-9.4-3.8-9.4-10.6v-13.1h4.7v13
			c0,3.7,1.8,6.1,4.8,6.1c3,0,4.8-2.3,4.8-6v-13.1h4.7V208.8z M361.6,219.1h-7v-23.3h7.3c6.7,0,11.6,3.1,11.6,11.7
			C373.6,215.6,367.6,219.1,361.6,219.1z M356.9,185.8c0,0-87.4,0-87.5,0c-1.9-0.2-3.4-1.7-3.4-3.6c0,0,0-100.2,0-100.2
			c0-1.8,0.7-2.8,3-3.7c6.1-2.4,13.1-3.8,20.2-3.8c29.1,0,53,22.3,55.5,50.8c3.8-1.6,7.9-2.5,12.2-2.5c17.4,0,31.6,14.1,31.6,31.6
			C388.5,171.8,374.3,185.8,356.9,185.8z"/>
		<path d="M361.8,200.3h-2.5v14.3h2.3c4.9,0,7.1-2.9,7.1-7.1C368.8,202.6,366.7,200.3,361.8,200.3z"/>
	</g>
</g>
<g id="レイヤー_14">
</g>
</svg>
