<?xml version="1.0" encoding="utf-8"?>
<!-- Generator: Adobe Illustrator 19.0.1, SVG Export Plug-In . SVG Version: 6.00 Build 0)  -->
<!DOCTYPE svg PUBLIC "-//W3C//DTD SVG 1.1//EN" "http://www.w3.org/Graphics/SVG/1.1/DTD/svg11.dtd">
<svg version="1.1" xmlns="http://www.w3.org/2000/svg" xmlns:xlink="http://www.w3.org/1999/xlink" x="0px" y="0px" width="512px"
	 height="512px" viewBox="0 0 512 512" enable-background="new 0 0 512 512" xml:space="preserve">
<g id="レイヤー_1">
	<g id="circle-o">
	</g>
	<g id="新規シンボル_1_">
	</g>
	<g id="新規シンボル_2_">
	</g>
	<g id="新規シンボル_3_">
	</g>
	<g id="新規シンボル_6_">
	</g>
	<g id="新規シンボル_5_">
	</g>
	<g id="新規シンボル">
	</g>
	<g id="新規シンボル_4_">
	</g>
	<g id="circle-o_2_">
	</g>
	<g id="circle-o_3_">
	</g>
	<g id="circle-o_5_">
	</g>
	<g id="circle-o_4_">
	</g>
	<g id="circle-o_6_">
	</g>
	<g id="circle-o_1_">
	</g>
	<g>
		<path d="M502.1,93.1c0-1.4,0-2.8,0-4.1c-0.1-2.8-0.3-5.8-0.8-8.6c-0.5-2.7-1.3-5.2-2.4-7.6c-1.2-2.4-2.8-4.6-4.7-6.4
			c-1.9-1.9-4-3.4-6.4-4.7c-2.4-1.2-4.9-2-7.7-2.5c-3-0.5-6.2-0.7-8.5-0.7l-4.2-0.1H44.5l-4.1,0.1c-2.4,0.1-5.5,0.2-8.6,0.8
			c-2.7,0.5-5.2,1.3-7.6,2.5c-2.4,1.2-4.5,2.8-6.4,4.7c-1.9,1.8-3.4,4-4.6,6.4c-1.2,2.3-2,4.8-2.5,7.6c-0.6,3-0.7,6.2-0.8,8.6
			c0,0.9-0.1,4.1-0.1,4.1v105.8c0,0,0,3.2,0.1,4.2c0.1,2.4,0.2,5.5,0.8,8.6c0.5,2.8,1.3,5.3,2.5,7.6c1.2,2.4,2.8,4.5,4.7,6.4
			c1.9,1.9,4,3.4,6.4,4.7c2.3,1.2,4.8,2,7.6,2.5c3,0.5,6,0.7,8.6,0.7c1.4,0,2.7,0.1,4.1,0.1l418,0l5,0c1.4,0,2.8,0,4.1-0.1
			c2.6-0.1,5.6-0.2,8.6-0.7c2.8-0.5,5.3-1.3,7.6-2.5c2.4-1.2,4.5-2.8,6.4-4.7c1.8-1.8,3.4-4,4.7-6.3c1.2-2.4,2-4.8,2.5-7.6
			c0.5-2.8,0.7-5.8,0.8-8.5c0-1.4,0-2.8,0-4.3c0-1.6,0-3.3,0-4.9V98.1C502.1,96.4,502.1,94.8,502.1,93.1z M261.9,118.2
			c-1.3-2-3.8-2.8-6-2.8c-4.1,0-7.7,2.1-8.6,6.4c-0.2,1-0.9,1.9-1.9,2l-10.4-1.1c-0.9-0.2-1.9-0.9-1.6-2.2
			c2.4-12.6,13.8-16.4,24-16.4c5.2,0,12,1.4,16.1,5.3c5.2,4.9,4.7,11.4,4.7,18.5v16.7c0,5,2.1,7.2,4,9.9c0.7,1,0.8,2.1,0,2.8
			c-2.2,1.8-6.1,5.2-8.2,7.1l0,0c-0.7,0.6-1.7,0.7-2.5,0.2c-3.6-3-4.2-4.3-6.1-7.1c-5.9,6-10.1,7.8-17.7,7.8c-9,0-16-5.6-16-16.7
			c0-8.7,4.7-14.6,11.4-17.5c5.8-2.6,13.9-3,20.2-3.7v-1.4C263.2,123.4,263.4,120.4,261.9,118.2z M150.1,107.7c0-1.1,0.9-2,2.1-2
			l10,0c1,0.1,1.9,0.8,1.9,1.8v7.2h0.2c2.6-6.9,7.5-10.2,14.1-10.2c6.7,0,10.9,3.2,13.9,10.2c2.6-6.9,8.5-10.2,14.8-10.2
			c4.5,0,9.4,1.9,12.4,6c3.4,4.6,2.7,11.3,2.7,17.3l0,34.7c0,1.1-0.9,2-2.1,2h-10.7c-1.1-0.1-1.9-0.9-1.9-2l0-29.2
			c0-2.3,0.2-8.1-0.3-10.3c-0.8-3.7-3.2-4.8-6.3-4.8c-2.6,0-5.3,1.7-6.4,4.5c-1.1,2.8-1,7.4-1,10.5v29.2c0,1.1-0.9,2-2.1,2h-10.7
			c-1.1-0.1-1.9-0.9-1.9-2l0-29.2c0-6.1,1-15.2-6.6-15.2c-7.7,0-7.4,8.8-7.4,15.2l0,29.2c0,1.1-0.9,2-2.1,2H152
			c-1-0.1-1.8-0.8-1.9-1.8L150.1,107.7z M133.5,164.4c-0.7,0.6-1.7,0.7-2.5,0.2c-3.6-3-4.2-4.3-6.1-7.1c-5.9,6-10.1,7.8-17.7,7.8
			c-9,0-16-5.6-16-16.7c0-8.7,4.7-14.6,11.4-17.5c5.8-2.6,13.9-3,20.2-3.7v-1.4c0-2.6,0.2-5.6-1.3-7.8c-1.3-2-3.8-2.8-6-2.8
			c-4.1,0-7.7,2.1-8.6,6.4c-0.2,1-0.9,1.9-1.9,2l-10.4-1.1c-0.9-0.2-1.9-0.9-1.6-2.2c2.4-12.6,13.8-16.4,24-16.4
			c5.2,0,12,1.4,16.1,5.3c5.2,4.9,4.7,11.4,4.7,18.5v16.7c0,5,2.1,7.2,4,9.9c0.7,1,0.8,2.1,0,2.8
			C139.5,159.1,135.6,162.5,133.5,164.4L133.5,164.4z M306,185.6c-20.1,14.9-49.3,22.8-74.4,22.8c-35.2,0-66.9-13-90.9-34.7
			c-1.9-1.7-0.2-4,2.1-2.7c25.9,15.1,57.9,24.1,91,24.1c22.3,0,46.8-4.6,69.4-14.2C306.5,179.5,309.3,183.2,306,185.6z M311.6,200.2
			c-1.7,1.4-3.2,0.6-2.5-1.2c2.4-6.1,7.9-19.7,5.3-23c-2.6-3.3-17-1.6-23.5-0.8c-2,0.2-2.3-1.5-0.5-2.7c11.5-8.1,30.4-5.8,32.6-3
			C325.2,172.3,322.4,191.2,311.6,200.2z M331.6,161.1c0,1.2-1.3,2.5-2.6,1.8c-10.8-5.7-25.2-6.3-37.2,0.1c-1.2,0.7-2.5-0.7-2.5-1.8
			v-8c0-1.3,0-3.5,1.3-5.4l21.2-30.3l-18.4,0c-1.1,0-2-0.8-2-2v-7.9c0-1.2,0.9-2,2-2l35.2,0c1.1,0,2,0.8,2,2v6.7c0,1.1-1,2.6-2.7,5
			l-18.3,26.1c6.8-0.2,13.9,0.9,20.1,4.3c1.4,0.8,1.8,1.9,1.9,3.1V161.1z M360.9,165.7c-15.6,0-24.1-13.7-24.1-30.7
			c0-17.1,8.6-30.5,24.1-30.5c15.9,0,24.5,13.7,24.5,31C385.4,152.3,375.9,165.7,360.9,165.7z M437.5,162.8c-0.1,1-1,1.7-2.1,1.7
			h-10.7c-1-0.1-1.8-0.8-1.9-1.7v-29.9c0-6,0.7-14.8-6.7-14.8c-2.6,0-5,1.7-6.2,4.4c-1.5,3.4-1.7,6.7-1.7,10.4v29.6
			c0,1.1-0.9,2-2.1,2h-10.7c-1.1-0.1-1.9-0.9-1.9-2l0-55.1c0.1-1,1-1.8,2.1-1.8l9.9,0c0.9,0,1.7,0.7,1.9,1.5v8.4h0.2
			c3-7.5,7.2-11.1,14.6-11.1c4.8,0,9.5,1.7,12.5,6.5c2.8,4.4,2.8,11.8,2.8,17.1V162.8z"/>
		<path d="M122.6,135.9c-7.8,0-15.9,1.7-15.9,10.8c0,4.6,2.4,7.8,6.5,7.8c3,0,5.7-1.9,7.4-4.9c2.1-3.7,2-7.2,2-11.4V135.9z"/>
		<path d="M361,115.8c-7.9,0-8.4,10.8-8.4,17.5c0,6.7-0.1,21.1,8.3,21.1c8.3,0,8.7-11.6,8.7-18.6c0-4.6-0.2-10.2-1.6-14.6
			C366.8,117.3,364.4,115.8,361,115.8z"/>
		<path d="M263.2,135.9c-7.8,0-15.9,1.7-15.9,10.8c0,4.6,2.4,7.8,6.5,7.8c3,0,5.7-1.9,7.4-4.9c2.1-3.7,2-7.2,2-11.4V135.9z"/>
	</g>
</g>
<g id="レイヤー_14">
</g>
</svg>
