<?xml version="1.0" encoding="utf-8"?>
<!-- Generator: Adobe Illustrator 16.0.1, SVG Export Plug-In . SVG Version: 6.00 Build 0)  -->
<!DOCTYPE svg PUBLIC "-//W3C//DTD SVG 1.1//EN" "http://www.w3.org/Graphics/SVG/1.1/DTD/svg11.dtd">
<svg version="1.1" id="レイヤー_1" xmlns="http://www.w3.org/2000/svg" xmlns:xlink="http://www.w3.org/1999/xlink" x="0px"
	 y="0px" width="1441px" height="1441px" viewBox="0 0 1441 1441" enable-background="new 0 0 1441 1441" xml:space="preserve">
<rect x="529" y="-1072" fill="#FFFFFF" width="780" height="498"/>
<path d="M929.438,953C916.546,953,907,942.955,907,930.059v-0.684c0-12.896,9.546-22.375,22.438-22.375H1082v-61h-76.831
	C992.272,846,983,834.25,983,821.354v-0.739c0-12.897,9.272-22.614,22.169-22.614H1082v-55h-72.649
	C996.454,743,986,732.545,986,719.647v-1.295c0-12.897,10.454-23.353,23.351-23.353H1082v-66H813.131
	C800.234,629,788,618.863,788,605.969v-0.344C788,592.729,800.234,581,813.133,581h206.377c-5.227-6.445-8.362-14.653-8.362-23.597
	c0-20.712,16.79-37.497,37.503-37.497c14.531,0,27.125,8.272,33.35,20.362V456H930.221C917.325,456,907,445.975,907,433.08v-1.471
	C907,418.713,917.325,408,930.221,408H1082V284h-63.104c3.241,5.002,5.132,10.961,5.132,17.365c0,17.66-14.324,31.98-31.987,31.982
	c-17.665,0-31.986-14.322-31.986-31.982c0.001-6.404,1.891-12.363,5.132-17.365H341v742h741v-73H929.438z M818.836,403.161
	c16.051,0.001,29.06,13.012,29.061,29.059c-0.001,16.048-13.011,29.057-29.061,29.057c-16.044,0-29.055-13.009-29.055-29.057
	C789.782,416.173,802.793,403.162,818.836,403.161z M818.836,959.553c-16.044,0-29.055-13.009-29.055-29.057
	c0.001-16.047,13.012-29.058,29.055-29.059c16.051,0.001,29.06,13.012,29.061,29.059
	C847.896,946.544,834.886,959.553,818.836,959.553z"/>
<rect x="340.5" y="284.5" fill="none" stroke="#000000" stroke-miterlimit="10" width="800" height="800"/>
</svg>
