<?xml version="1.0" encoding="utf-8"?>
<!-- Generator: Adobe Illustrator 16.0.3, SVG Export Plug-In . SVG Version: 6.00 Build 0)  -->
<!DOCTYPE svg PUBLIC "-//W3C//DTD SVG 1.1//EN" "http://www.w3.org/Graphics/SVG/1.1/DTD/svg11.dtd">
<svg version="1.1" id="レイヤー_1" xmlns="http://www.w3.org/2000/svg" xmlns:xlink="http://www.w3.org/1999/xlink" x="0px"
	 y="0px" width="1441px" height="1441px" viewBox="0 0 1441 1441" enable-background="new 0 0 1441 1441" xml:space="preserve">
<g display="none">
	<path display="inline" fill="#FFFFFF" d="M1324,706.102c0,13.812-11.203,25.016-25.023,25.016h-288.839
		c-13.82,0-25.023-11.203-25.023-25.016l0,0c0-13.82,11.203-25.023,25.023-25.023h288.839
		C1312.797,681.078,1324,692.281,1324,706.102L1324,706.102z"/>
	<path display="inline" fill="#FFFFFF" d="M1324,806.5c0,13.82-11.203,25.023-25.023,25.023h-288.839
		c-13.82,0-25.023-11.203-25.023-25.023l0,0c0-13.82,11.203-25.023,25.023-25.023h288.839C1312.797,781.477,1324,792.68,1324,806.5
		L1324,806.5z"/>
	<g display="inline">
		<path fill="#FFFFFF" d="M1124.734,591.092c0,12.941-10.49,23.431-23.431,23.431H810.545c-12.94,0-23.431-10.49-23.431-23.431l0,0
			c0-12.94,10.49-23.431,23.431-23.431h290.759C1114.244,567.661,1124.734,578.152,1124.734,591.092L1124.734,591.092z"/>
		<circle fill="#FFFFFF" cx="1052" cy="547.4" r="39.001"/>
	</g>
	<circle display="inline" fill="#FFFFFF" cx="993.059" cy="298.5" r="32.501"/>
	<g display="inline">
		<path fill="#FFFFFF" d="M1245,427.5c0,13.82-11.203,25.023-25.023,25.023H931.138c-13.82,0-25.023-11.203-25.023-25.023l0,0
			c0-13.82,11.203-25.023,25.023-25.023h288.839C1233.797,402.477,1245,413.68,1245,427.5L1245,427.5z"/>
		<circle fill="#FFFFFF" cx="812.877" cy="427.5" r="27.263"/>
	</g>
	<g display="inline">
		<path fill="#FFFFFF" d="M1245,930.5c0,13.82-11.203,25.023-25.023,25.023H931.138c-13.82,0-25.023-11.203-25.023-25.023l0,0
			c0-13.82,11.203-25.023,25.023-25.023h288.839C1233.797,905.477,1245,916.68,1245,930.5L1245,930.5z"/>
		<circle fill="#FFFFFF" cx="812.877" cy="930.5" r="27.263"/>
	</g>
</g>
<g>
	<polygon points="1349.062,2 1349.062,1261.125 0,1261.125 0,1441 1439,1441 1439,2 	"/>
	<path d="M1259.125,181.875V2h-89.938v89.938h-89.938V2H0v1169.188h1259.125v-89.938H989.312v-89.938h269.812v-89.938H1079.25
		v-89.938h179.875V721.5H1079.25v-89.938h179.875v-89.938H809.438v-89.938h359.75V361.75h89.938v-89.938H989.312v-89.938H1259.125z
		 M899.375,991.312v89.938h-89.938v-89.938H899.375z M899.375,271.812h-89.938v-89.938h89.938V271.812z"/>
</g>
</svg>
