<?xml version="1.0" encoding="utf-8"?>
<!-- Generator: Adobe Illustrator 19.0.1, SVG Export Plug-In . SVG Version: 6.00 Build 0)  -->
<!DOCTYPE svg PUBLIC "-//W3C//DTD SVG 1.1//EN" "http://www.w3.org/Graphics/SVG/1.1/DTD/svg11.dtd">
<svg version="1.1" xmlns="http://www.w3.org/2000/svg" xmlns:xlink="http://www.w3.org/1999/xlink" x="0px" y="0px" width="512px"
	 height="512px" viewBox="0 0 512 512" enable-background="new 0 0 512 512" xml:space="preserve">
<g id="レイヤー_1">
	<g id="circle-o">
	</g>
	<g id="新規シンボル_1_">
	</g>
	<g id="新規シンボル_2_">
	</g>
	<g id="新規シンボル_3_">
	</g>
	<g id="新規シンボル_6_">
	</g>
	<g id="新規シンボル_5_">
	</g>
	<g id="新規シンボル">
	</g>
	<g id="新規シンボル_4_">
	</g>
	<g id="circle-o_2_">
	</g>
	<g id="circle-o_3_">
	</g>
	<g id="circle-o_5_">
	</g>
	<g id="circle-o_4_">
	</g>
	<g id="circle-o_6_">
	</g>
	<g id="circle-o_1_">
	</g>
	<g>
		<path d="M237.3,83.5c-0.9-1.4-2.3-2.1-4.1-2.1c-1.7,0-3.1,0.7-4.2,2.1c-0.8,1.1-1.4,2.5-1.6,4.1h10.9
			C238.4,86,238,84.6,237.3,83.5z"/>
		<path d="M295.9,81.5c-2.1,0-3.7,0.9-4.8,2.7c-1,1.5-1.5,3.3-1.5,5.5c0,2.1,0.5,3.9,1.5,5.4c1.1,1.8,2.7,2.7,4.7,2.7
			c2,0,3.5-0.9,4.7-2.7c1-1.6,1.5-3.4,1.5-5.5c0-2.1-0.5-3.9-1.5-5.4C299.5,82.4,297.9,81.5,295.9,81.5z"/>
		<path d="M502.1,93.1c0-1.4,0-2.8,0-4.1c-0.1-2.8-0.3-5.8-0.8-8.6c-0.5-2.7-1.3-5.2-2.4-7.6c-1.2-2.4-2.8-4.6-4.7-6.4
			c-1.9-1.9-4-3.4-6.4-4.7c-2.4-1.2-4.9-2-7.7-2.5c-3-0.5-6.2-0.7-8.5-0.7l-4.2-0.1H44.5l-4.1,0.1c-2.4,0.1-5.5,0.2-8.6,0.8
			c-2.7,0.5-5.2,1.3-7.6,2.5c-2.4,1.2-4.5,2.8-6.4,4.7c-1.9,1.8-3.4,4-4.6,6.4c-1.2,2.3-2,4.8-2.5,7.6c-0.6,3-0.7,6.2-0.8,8.6
			c0,0.9-0.1,4.1-0.1,4.1v105.8c0,0,0,3.2,0.1,4.2c0.1,2.4,0.2,5.5,0.8,8.6c0.5,2.8,1.3,5.3,2.5,7.6c1.2,2.4,2.8,4.5,4.7,6.4
			c1.9,1.9,4,3.4,6.4,4.7c2.3,1.2,4.8,2,7.6,2.5c3,0.5,6,0.7,8.6,0.7c1.4,0,2.7,0.1,4.1,0.1l418,0l5,0c1.4,0,2.8,0,4.1-0.1
			c2.6-0.1,5.6-0.2,8.6-0.7c2.8-0.5,5.3-1.3,7.6-2.5c2.4-1.2,4.5-2.8,6.4-4.7c1.8-1.8,3.4-4,4.7-6.3c1.2-2.4,2-4.8,2.5-7.6
			c0.5-2.8,0.7-5.8,0.8-8.5c0-1.4,0-2.8,0-4.3c0-1.6,0-3.3,0-4.9V98.1C502.1,96.4,502.1,94.8,502.1,93.1z M316.1,79.1l0.2,3.4h0.1
			c0.6-1.1,1.4-2,2.5-2.7c1.3-0.8,2.7-1.2,4.3-1.2c1.9,0,3.4,0.6,4.7,1.7c1.7,1.6,2.6,3.9,2.6,7.1v12.7h0h-3.8V88
			c0-4.1-1.6-6.2-4.7-6.2c-1.5,0-2.8,0.6-3.8,1.7c-1,1.1-1.5,2.5-1.5,4v12.7h-3.8V84.8c0-1.7-0.1-3.6-0.2-5.7H316.1z M252,79.1
			l0.2,3.4h0.1c0.6-1.1,1.4-2,2.5-2.7c1.3-0.8,2.7-1.2,4.3-1.2c1.9,0,3.4,0.6,4.7,1.7c1.7,1.6,2.6,3.9,2.6,7.1v12.7h-3.8V88
			c0-4.1-1.6-6.2-4.7-6.2c-1.5,0-2.8,0.6-3.8,1.7c-1,1.1-1.5,2.5-1.5,4v12.7h-3.8V84.8c0-1.7-0.1-3.6-0.2-5.7H252z M206.5,79.1h3.2
			v-3.9l3.7-1.1v5h5.4V82h-5.4v11.4c0,2.7,0.9,4,2.8,4c0.8,0,1.6-0.1,2.2-0.3l0.2,2.9c-0.9,0.3-2,0.5-3.3,0.5
			c-1.8,0-3.1-0.5-4.1-1.6c-1-1.1-1.5-2.9-1.5-5.4V82h-3.2V79.1z M197.4,92.4c-0.6-0.6-1.6-1.1-3-1.7c-3.7-1.4-5.5-3.4-5.5-6
			c0-1.7,0.7-3.2,2-4.4c1.3-1.2,3-1.8,5.2-1.8c2,0,3.7,0.4,5.1,1.3l-1,2.8c-1.3-0.8-2.7-1.2-4.2-1.2c-1.1,0-1.9,0.3-2.5,0.8
			c-0.6,0.5-0.9,1.2-0.9,2.1c0,0.8,0.3,1.5,1,2c0.5,0.5,1.5,1,3,1.6c3.6,1.4,5.4,3.5,5.4,6.4c0,1.9-0.7,3.4-2.1,4.5
			c-1.4,1.1-3.3,1.7-5.7,1.7c-2.2,0-4.2-0.5-5.8-1.4l0.9-2.9c1.6,1,3.2,1.5,5,1.5c2.7,0,4-1,4-3.1C198.3,93.8,198,93,197.4,92.4z
			 M177.8,71.1c0.5-0.5,1-0.7,1.7-0.7c0.7,0,1.3,0.2,1.8,0.7c0.4,0.4,0.7,1,0.7,1.8c0,0.7-0.2,1.3-0.7,1.8c-0.5,0.4-1.1,0.7-1.8,0.7
			c-0.7,0-1.3-0.2-1.7-0.7c-0.4-0.5-0.7-1-0.7-1.7C177.1,72.1,177.3,71.5,177.8,71.1z M181.4,79.1v21.1h-3.8V79.1H181.4z
			 M155.4,70.9h3.7V97h12.3v3.2h-16V70.9z M98.2,116.3c0-4.4,1.6-8.4,4.9-12.3c1.6-1.9,3.7-3.5,6.2-4.8c2.5-1.3,4.9-2,7.1-2.1
			c0.1,0.3,0.1,0.6,0.1,0.9c0,0.3,0,0.6,0,0.9c0,4.5-1.6,8.8-4.8,12.7c-3.9,4.7-8.4,6.8-13.3,6.4c-0.1-0.3-0.1-0.6-0.1-0.9
			C98.2,116.9,98.2,116.6,98.2,116.3z M134.3,165.8c-0.2,0.7-0.5,1.4-0.8,2c-0.7,1.6-1.4,3.2-2.2,4.6c-0.8,1.5-1.6,2.8-2.5,4.1
			c-1.2,1.8-2.3,3.3-3.3,4.5c-1,1.3-1.9,2.3-2.7,3c-2.4,2.2-5,3.4-7.8,3.5c-1.9,0-4.3-0.6-7.2-1.8c-2.6-1.1-5.2-1.7-7.7-1.7
			c-2.6,0-5.3,0.6-7.9,1.7c-2.8,1.2-5.1,1.8-6.9,1.9c-2.7,0.1-5.3-1.1-7.9-3.6c-1.8-1.6-3.9-4.2-6.3-7.8c-2.7-3.9-4.9-8.5-6.7-13.7
			c-1.9-5.4-2.8-10.9-2.8-16.3c0-6.1,1.3-11.3,3.8-15.6c2-3.5,4.6-6.3,7.9-8.3c3.3-2,6.9-3.1,10.7-3.1c2.3,0,5.1,0.7,8.3,2
			c3.2,1.3,5.4,2,6.6,2c0.5,0,3-0.8,7.3-2.4c4-1.5,7.3-2.1,9.9-1.8c7.3,0.7,12.8,3.7,16.5,9c-6.6,4.1-9.9,9.9-9.7,17.3
			c0.1,5.7,2.1,10.5,6,14.3c1.8,1.8,3.8,3.1,6,4.1C134.8,164.4,134.6,165.1,134.3,165.8z M221,186.7h-12.7v-42.9h-0.6l-15.2,34.1
			h-8.8l-15.3-34.1h-0.6v42.9h-12.5v-66.3h14.4l18.3,41.1h0.4l18.3-41.1H221V186.7z M226.5,97.7c-1.8-1.9-2.7-4.5-2.7-7.7
			c0-3.3,0.9-6,2.6-8.1c1.8-2.1,4.1-3.2,7.1-3.2c3,0,5.2,1.1,6.7,3.4c1.1,1.8,1.7,3.9,1.7,6.4c0,0.8,0,1.4-0.1,1.9h-14.4
			c0.1,2.5,0.8,4.3,2.2,5.6c1.2,1.1,2.9,1.7,4.9,1.7c2.1,0,4-0.3,5.7-1l0.7,2.7c-1.9,0.8-4.2,1.3-6.9,1.3
			C230.8,100.5,228.4,99.6,226.5,97.7z M288.9,164.2c0,14.1-10.2,23.7-27.1,23.8c-16.9,0-27.1-9.6-27.1-23.8v-43.8h14v41.9
			c0,8.9,5.3,13.8,13.1,13.8c7.8,0,13.1-4.9,13.1-13.8v-41.9h14V164.2z M288.4,97.5c-1.7-2-2.6-4.6-2.6-7.7c0-3.2,0.9-5.9,2.7-7.9
			c1.9-2.1,4.4-3.2,7.6-3.2c3,0,5.5,1,7.3,3.1c1.7,2,2.6,4.6,2.6,7.7c0,3.2-0.9,5.9-2.7,7.9c-1.9,2.1-4.4,3.2-7.6,3.2
			C292.7,100.6,290.2,99.6,288.4,97.5z M326.9,188c-19.5,0-25.8-10.9-26.1-20.3h13.5c0.4,4.9,4.8,9.3,13.2,9.3c7.8,0,12-3.5,12-8.7
			c0-4.5-3.4-6.7-10.1-8.2l-10-2.3c-9.3-2-17.1-7.2-17.1-18.5c0-13,11.1-20.3,25.1-20.3c14.8,0,24.8,8.2,24.9,19.9h-13.1
			c-0.3-4.7-4.2-9-11.9-9c-6.8,0-11,3.2-11,8.3c0,3.8,3.1,6.4,9,7.6l10.1,2.2c9.7,2.1,17.9,6.8,17.9,18.9
			C353.4,179.9,343.3,188,326.9,188z M381.6,186.7h-14.1v-66.3h14.1V186.7z M450.4,144h-13.5c0-6.8-4.4-13.1-12.8-13.1
			c-8.4,0-13.9,6.3-13.9,19v7.5c0,12.8,5.4,18.7,14,18.7c8.4,0,12.7-5.7,12.7-12.5h13.5v1.4c0,12-9.6,22.9-26.4,22.9
			c-17.6,0-28-11.2-28-30.6v-7.5c0-19.4,10.5-30.8,28.1-30.8c16.4,0,26.4,10.7,26.4,23.5V144z"/>
	</g>
</g>
<g id="レイヤー_14">
</g>
</svg>
