<?xml version="1.0" encoding="utf-8"?>
<!-- Generator: Adobe Illustrator 19.0.1, SVG Export Plug-In . SVG Version: 6.00 Build 0)  -->
<!DOCTYPE svg PUBLIC "-//W3C//DTD SVG 1.1//EN" "http://www.w3.org/Graphics/SVG/1.1/DTD/svg11.dtd">
<svg version="1.1" xmlns="http://www.w3.org/2000/svg" xmlns:xlink="http://www.w3.org/1999/xlink" x="0px" y="0px" width="512px"
	 height="512px" viewBox="0 0 512 512" enable-background="new 0 0 512 512" xml:space="preserve">
<g id="レイヤー_1">
	<g id="circle-o">
	</g>
	<g id="新規シンボル_1_">
	</g>
	<g id="新規シンボル_2_">
	</g>
	<g id="新規シンボル_3_">
	</g>
	<g id="新規シンボル_6_">
	</g>
	<g id="新規シンボル_5_">
	</g>
	<g id="新規シンボル">
	</g>
	<g id="新規シンボル_4_">
	</g>
	<g id="circle-o_2_">
	</g>
	<g id="circle-o_3_">
	</g>
	<g id="circle-o_5_">
	</g>
	<g id="circle-o_4_">
	</g>
	<g id="circle-o_6_">
	</g>
	<g id="circle-o_1_">
	</g>
	<g>
		<path d="M247.7,149.7c-4.7,0-4.9,2.6-5.1,5.1v3.4c0,3.5,1.1,4.9,4.1,5.2l15.3,0c2-0.1,4.4-0.3,4.5-5.2l-0.1-8.5H247.7z"/>
		<path d="M339,132.1h-14.7c-4,0-5.4,1.4-5.4,5.3l0,26.1h18.5c2,0,3.4-0.4,4.2-1.2c1.2-1.2,1.2-3.4,1.1-5.9c0-0.4,0-17.2,0-17.3
			c0-2.5,0-4.7-1.1-5.9C341.1,132.6,340.3,132.2,339,132.1z"/>
		<path d="M383.9,132.1l-14,0c-2,0.1-4.4,0.3-4.5,5.2v20.8c0,3.9,1.3,5.2,5.4,5.2h7.8l6.2-0.1c2-0.1,4.4-0.3,4.5-5.2l0-17.6
			C389.3,134.2,388.9,132.1,383.9,132.1z"/>
		<path d="M171.8,131.7h-18.7l0,26.3c0,3.9,1.4,5.3,5.4,5.3h8v0l6.2,0c2-0.1,4.3-0.3,4.4-5.2l0-17.8
			C177.2,133.8,176.8,131.7,171.8,131.7z"/>
		<path d="M222.9,140.6v-3.4c0-3.3-1-4.8-3.8-5.1l-15.6,0c-2,0.1-4.4,0.3-4.5,5.2v8.4h18.7C222.4,145.8,222.7,143.2,222.9,140.6z"/>
		<path d="M502.1,93.1c0-1.4,0-2.8,0-4.1c-0.1-2.8-0.3-5.8-0.8-8.6c-0.5-2.7-1.3-5.2-2.4-7.6c-1.2-2.4-2.8-4.6-4.7-6.4
			c-1.9-1.9-4-3.4-6.4-4.7c-2.4-1.2-4.9-2-7.7-2.5c-3-0.5-6.2-0.7-8.5-0.7l-4.2-0.1H44.5l-4.1,0.1c-2.4,0.1-5.5,0.2-8.6,0.8
			c-2.7,0.5-5.2,1.3-7.6,2.5c-2.4,1.2-4.5,2.8-6.4,4.7c-1.9,1.8-3.4,4-4.6,6.4c-1.2,2.3-2,4.8-2.5,7.6c-0.6,3-0.7,6.2-0.8,8.6
			c0,0.9-0.1,4.1-0.1,4.1v105.8c0,0,0,3.2,0.1,4.2c0.1,2.4,0.2,5.5,0.8,8.6c0.5,2.8,1.3,5.3,2.5,7.6c1.2,2.4,2.8,4.5,4.7,6.4
			c1.9,1.9,4,3.4,6.4,4.7c2.3,1.2,4.8,2,7.6,2.5c3,0.5,6,0.7,8.6,0.7c1.4,0,2.7,0.1,4.1,0.1l418,0l5,0c1.4,0,2.8,0,4.1-0.1
			c2.6-0.1,5.6-0.2,8.6-0.7c2.8-0.5,5.3-1.3,7.6-2.5c2.4-1.2,4.5-2.8,6.4-4.7c1.8-1.8,3.4-4,4.7-6.3c1.2-2.4,2-4.8,2.5-7.6
			c0.5-2.8,0.7-5.8,0.8-8.5c0-1.4,0-2.8,0-4.3c0-1.6,0-3.3,0-4.9V98.1C502.1,96.4,502.1,94.8,502.1,93.1z M48,169.1l-4.3,2.6
			c-1,0.6-2.3,0.3-2.9-0.7l0,0c-4.2-7.1-6.5-15.2-6.5-23.4c0-4.7,0.7-9.3,2.1-13.7l0,0c0.4-1.1,1.5-1.7,2.6-1.4l4.8,1.5
			c1.1,0.3,1.7,1.5,1.4,2.6v0v0h0c-1.1,3.5-1.7,7.2-1.7,10.9c0,6.6,1.8,13,5.1,18.7l0,0C49.3,167.2,49,168.5,48,169.1z M103.4,171.2
			l-3.7-3.5c-0.8-0.8-0.9-2.1-0.1-3l0,0c4.4-4.6,6.7-10.7,6.7-17c0-13.7-11.2-24.9-24.9-24.9c-13.7,0-24.9,11.2-24.9,24.9
			c0,6.3,2.4,12.4,6.7,17l0,0c0.8,0.9,0.8,2.2-0.1,3l-3.7,3.5c-0.9,0.8-2.2,0.8-3-0.1l0,0c-6-6.4-9.3-14.7-9.3-23.4
			c0-18.9,15.3-34.2,34.2-34.2c18.9,0,34.2,15.3,34.2,34.2c0,8.7-3.3,17-9.3,23.4l0,0C105.6,171.9,104.2,172,103.4,171.2z
			 M122.1,171c-0.6,1-1.9,1.3-2.9,0.7l-4.3-2.6c-1-0.6-1.3-1.9-0.7-2.9l0,0c3.4-5.6,5.1-12.1,5.1-18.7c0-3.7-0.6-7.4-1.7-10.9l0,0
			c-0.3-1.1,0.3-2.3,1.4-2.6l4.8-1.5c1.1-0.3,2.3,0.3,2.6,1.4c0,0,0,0,0,0c0,0,0,0,0,0h0c1.4,4.4,2.1,9,2.1,13.7
			C128.6,155.8,126.3,163.9,122.1,171z M186.1,151.1L186.1,151.1v6.4c-0.3,9.8-5,14.6-14.1,14.7h-4.2h-9.3c-9,0-14.4-5.3-14.4-14.2
			v-43c0-1.1,0.9-2.1,2.1-2.1h4.8c1.1,0,2.1,0.9,2.1,2.1v7.7h18.7c12.6,0,14.3,8.8,14.3,17.5V151.1z M204.4,163.3c0,0,21.9,0,22,0
			c2.1,0,2.4,1.3,2.4,2v4.7c0,1.4-0.9,2.3-2.4,2.3h-22c-12.5,0-14.2-8.8-14.2-17.4l0-17c0.3-9.8,5-14.6,14.1-14.6l4,0h9.2
			c8.9,0,14.2,5.3,14.2,14l0,2.8c-0.2,9.3-5.2,14.5-13.8,14.5c-7.2,0-16,0-18.9,0v0.3C199,161.3,199.4,163.3,204.4,163.3z
			 M275.3,157.6c-0.4,9.8-5,14.6-14.1,14.7h-5.4l0,0h-7.8c-8.9,0-14.2-5.3-14.2-14l0-2.8c0.2-9.3,5.2-14.5,13.8-14.5
			c7.2,0,16,0,18.9,0l0-0.3c0-6.4-0.4-8.4-5.4-8.4c0,0-21.9,0-22,0c-2.1,0-2.4-1.3-2.4-2v-4.7c0-1.4,0.9-2.3,2.4-2.3h22
			c12.5,0,14.2,8.8,14.2,17.4v7.7h0V157.6z M306.9,130.9c0,0.9-1,1.8-1.9,1.8c-0.5,0-13.3,0-16.1,0v19.4c0,0-0.6,11.9,11.8,11.9
			c0.3,0,1.8,0,2.3,0h0c0.9,0,2.2,0.7,2.2,2v5.1c-0.1,0.3,0,1.6-2.1,1.8c-1.5,0-2.8,0-2.8,0c-21,0-20.3-20.3-20.3-20.3v-36.3
			c0-1.1,0.9-2.1,2-2.1h4.7c1.1,0,2.1,0.9,2.1,2v7.6H305c1.2,0,1.9,1.4,1.9,2V130.9z M351.7,151.2v3.8c0,8.9-1.7,17.2-14.2,17.2H319
			l0,7.4c0,1.1-1,2-2.1,2h-5.2c-1,0-1.6-0.8-1.6-2.1l0-42.2c0-8.9,5.3-14.2,14.2-14.2h13.2c12.5,0,14.2,8.3,14.2,17.2L351.7,151.2z
			 M398.1,157.6c-0.3,9.8-5,14.6-14.1,14.7h-5.4v0h-7.8c-8.9,0-14.2-5.2-14.2-14v-20.3c0.3-9.8,5-14.6,14.1-14.7h13.3
			c12.5,0,14.2,8.8,14.2,17.4V157.6z M434.4,130c0,1.3-1.3,2-2.2,2h0c-0.6,0-8.3,0-8.5,0c-12.5,0-11.9,11.9-11.9,11.9v26.2
			c0,1.1-1,2-2.1,2H405c-1.1,0-2-0.9-2-2.1v-26.6c0,0-0.8-20.4,20.3-20.3c0,0,7.5,0,9,0c2.2,0.2,2,1.4,2.1,1.8V130z M465.7,130.3
			c0,0.9-1,1.8-1.9,1.8c-0.5,0-13.3,0-16.1,0v19.4c0,0-0.6,11.9,11.8,11.9c0.3,0,1.8,0,2.3,0h0c0.9,0,2.2,0.7,2.2,2v5.1
			c-0.1,0.3,0,1.6-2.1,1.8c-1.5,0-2.8,0-2.8,0c-21,0-20.3-20.3-20.3-20.3v-36.3c0-1.1,0.9-2,2-2h4.7c1.1,0,2.1,0.9,2.1,2v7.6h16.1
			c1.2,0,1.9,1.4,1.9,2V130.3z M471,171.8c-2.6,0-4.6-2.1-4.6-4.6c0-2.6,2.1-4.6,4.6-4.6c2.6,0,4.6,2.1,4.6,4.6
			C475.7,169.8,473.6,171.8,471,171.8z"/>
		<path d="M471,163.8c-2,0-3.3,1.3-3.3,3.4c0,2.1,1.3,3.4,3.3,3.4c2,0,3.3-1.3,3.3-3.4C474.3,165.1,473,163.8,471,163.8z M473,169.5
			h-1.1l-1-1.8h-0.7v1.8h-0.9v-4.3h2.1c1.2,0,1.7,0.3,1.7,1.4c0,0.8-0.4,1.2-1.2,1.2L473,169.5z"/>
		<path d="M471.2,165.8h-1v1.2h1.2c0.5,0,0.8-0.1,0.8-0.7C472.2,165.8,471.6,165.8,471.2,165.8z"/>
	</g>
</g>
<g id="レイヤー_14">
</g>
</svg>
