<?xml version="1.0" encoding="utf-8"?>
<!-- Generator: Adobe Illustrator 19.0.1, SVG Export Plug-In . SVG Version: 6.00 Build 0)  -->
<!DOCTYPE svg PUBLIC "-//W3C//DTD SVG 1.1//EN" "http://www.w3.org/Graphics/SVG/1.1/DTD/svg11.dtd">
<svg version="1.1" xmlns="http://www.w3.org/2000/svg" xmlns:xlink="http://www.w3.org/1999/xlink" x="0px" y="0px" width="512px"
	 height="512px" viewBox="0 0 512 512" enable-background="new 0 0 512 512" xml:space="preserve">
<g id="レイヤー_1">
	<g id="circle-o">
	</g>
	<g id="新規シンボル_1_">
	</g>
	<g id="新規シンボル_2_">
	</g>
	<g id="新規シンボル_3_">
	</g>
	<g id="新規シンボル_6_">
	</g>
	<g id="新規シンボル_5_">
	</g>
	<g id="新規シンボル">
	</g>
	<g id="新規シンボル_4_">
	</g>
	<g id="circle-o_2_">
	</g>
	<g id="circle-o_3_">
	</g>
	<g id="circle-o_5_">
	</g>
	<g id="circle-o_4_">
	</g>
	<g id="circle-o_6_">
	</g>
	<g id="circle-o_1_">
	</g>
	<g>
		<path d="M390.6,160.1c-3.1,0-5.7,1.3-7.6,3.9c-1.6,2.1-2.5,4.5-2.8,7.4h19.9c0.1-2.8-0.6-5.3-1.9-7.3
			C396.6,161.5,394.1,160.1,390.6,160.1z"/>
		<path d="M250.5,104.1c0-1.3-0.3-2.5-0.9-3.5c-0.8-1.3-2-1.9-3.6-1.9c-1.5,0-2.7,0.6-3.6,1.8c-0.8,1-1.2,2.1-1.3,3.5L250.5,104.1
			L250.5,104.1z"/>
		<path d="M497.4,82.9c0-0.9,0-1.9,0-2.8c0-1.7-0.1-3.7-0.5-5.5c-0.3-1.8-0.8-3.3-1.5-4.7c-0.7-1.4-1.7-2.8-2.9-3.9
			c-1.2-1.2-2.5-2.1-3.9-2.9c-1.4-0.7-2.9-1.2-4.7-1.5c-1.9-0.4-3.9-0.4-5.6-0.5c-0.9,0-1.8-0.1-2.8-0.1l-3.4,0v0H39.8l-3.3,0
			c-0.9,0-1.9,0-2.8,0.1c-1.7,0-3.6,0.1-5.5,0.5c-1.8,0.3-3.2,0.8-4.7,1.5c-1.4,0.7-2.8,1.7-3.9,2.9c-1.1,1.2-2.1,2.5-2.9,3.9
			c-0.7,1.4-1.2,2.9-1.5,4.7c-0.4,1.9-0.4,3.9-0.5,5.5c0,0.9-0.1,1.9-0.1,2.8v2.7v0.7v119.6v0.7v2.7c0,0.9,0,1.9,0.1,2.8
			c0,1.7,0.1,3.6,0.5,5.6c0.3,1.7,0.8,3.2,1.5,4.7c0.7,1.4,1.7,2.7,2.9,3.9c1.2,1.1,2.5,2.1,3.9,2.8c1.4,0.8,2.9,1.2,4.7,1.6
			c1.9,0.3,4,0.5,5.5,0.5c0.9,0,1.9,0,2.8,0c1.1,0,2.2,0,3.3,0c0,0,0,0,0,0h432.4c1.1,0,2.2,0,3.4,0c0.9,0,1.9,0,2.8,0
			c1.6,0,3.6-0.2,5.6-0.5c1.8-0.3,3.2-0.8,4.7-1.6c1.4-0.7,2.8-1.7,3.9-2.8c1.2-1.2,2.1-2.5,2.9-3.9c0.7-1.5,1.2-3,1.5-4.7
			c0.3-1.9,0.4-3.9,0.5-5.6c0-0.9,0-1.9,0-2.8c0-1.1,0-2.3,0-3.4V86.2C497.4,85.1,497.4,84,497.4,82.9z M328.4,98.7
			c1.8-2,4.3-3,7.4-3c3,0,5.4,1,7.2,3c1.7,1.9,2.6,4.4,2.6,7.4c0,3.1-0.9,5.7-2.7,7.7c-1.9,2.1-4.3,3.1-7.4,3.1c-3,0-5.3-1-7.1-3
			c-1.8-2-2.6-4.5-2.6-7.5C325.7,103.3,326.6,100.7,328.4,98.7z M297.6,96.1h3v-3.7l4.4-1.3v5h5v3.4H305v9.8c0,2.5,0.9,3.7,2.6,3.7
			c0.8,0,1.5-0.1,2-0.2l0.1,3.4c-0.9,0.3-2.1,0.5-3.5,0.5c-1.8,0-3.2-0.5-4.2-1.6c-1-1.1-1.5-2.9-1.5-5.5V99.5h-3V96.1z M288.2,88.2
			c0.5-0.5,1.2-0.8,2-0.8c0.8,0,1.4,0.3,2,0.8c0.5,0.5,0.8,1.1,0.8,1.9c0,0.8-0.3,1.5-0.8,2c-0.5,0.5-1.2,0.8-2,0.8
			c-0.7,0-1.4-0.3-1.9-0.8s-0.8-1.2-0.8-1.9C287.4,89.3,287.7,88.7,288.2,88.2z M292.4,96.1v20.2h-4.5V96.1H292.4z M239.3,98.9
			c1.8-2.2,4.1-3.2,7.1-3.2c2.9,0,5.1,1.1,6.6,3.2c1.2,1.7,1.8,3.8,1.8,6.4c0,0.8-0.1,1.5-0.2,2h-13.5c0.1,2,0.7,3.5,2,4.6
			c1.1,0.9,2.6,1.4,4.4,1.4c2,0,3.8-0.3,5.5-1l0.7,3.1c-1.9,0.8-4.2,1.3-6.8,1.3c-3.1,0-5.6-0.9-7.4-2.8c-1.8-1.8-2.7-4.3-2.7-7.4
			C236.8,103.5,237.6,100.9,239.3,98.9z M119.6,93.1c4.1-4.8,11.1-8.4,16.8-8.7c0.7,6.7-1.9,13.4-5.8,18.3c-4.1,4.8-10.6,8.5-16.9,8
			C112.8,104.2,116,97.3,119.6,93.1z M152.2,184.2c-4.7,7-9.6,13.8-17.4,14c-7.6,0.2-10.1-4.5-18.8-4.5c-8.8,0-11.5,4.3-18.7,4.6
			c-7.4,0.3-13.1-7.5-17.9-14.4c-9.7-14.2-17.3-39.9-7.1-57.5c4.9-8.6,13.9-14.1,23.4-14.3c7.4-0.2,14.3,5,18.9,5
			c4.5,0,13-6.2,21.8-5.3c3.7,0.1,14.1,1.5,20.9,11.3c-0.5,0.3-12.5,7.3-12.3,21.7c0.1,17.3,15.1,23,15.3,23
			C160,168.4,157.8,176.3,152.2,184.2z M219.4,197.4h-9.5v-42.9h9.5V197.4z M218.8,145.8c-1.1,1.1-2.6,1.6-4.3,1.6
			c-1.6,0-2.9-0.5-4-1.6c-1.1-1.1-1.6-2.5-1.6-4.1c0-1.6,0.6-3,1.7-4.1c1.1-1.1,2.5-1.6,4.1-1.6c1.6,0,3,0.5,4.1,1.6
			c1.1,1.1,1.7,2.4,1.7,4.1C220.5,143.4,219.9,144.8,218.8,145.8z M212.2,113c-2.6-2.5-3.9-6-3.9-10.4c0-4.4,1.4-7.9,4.2-10.6
			c2.8-2.7,6.5-4,11-4c2.9,0,5.3,0.4,7,1.3l-1,3.7c-1.7-0.8-3.8-1.2-6.1-1.2c-3.1,0-5.6,0.9-7.5,2.7c-1.9,1.9-2.9,4.5-2.9,7.8
			c0,3.3,0.9,6,2.7,7.9c1.7,1.8,4.1,2.7,7.2,2.7c1.9,0,3.2-0.2,4.1-0.6v-7.6h-5.1v-3.5h9.5v13.9h0c-2.7,1-5.6,1.5-8.6,1.5
			C218.2,116.6,214.7,115.4,212.2,113z M270.7,145.9h-17v51.5h-9.5v-51.5h-16.9v-8h43.5V145.9z M270.9,99.5h-5v9.8
			c0,2.5,0.9,3.7,2.6,3.7c0.8,0,1.5-0.1,2-0.2l0.1,3.4c-0.9,0.3-2.1,0.5-3.5,0.5c-1.8,0-3.2-0.5-4.2-1.6c-1-1.1-1.5-2.9-1.5-5.5
			V99.5h-3v-3.4h3v-3.7l4.4-1.3v5h5V99.5z M302,197.4l-0.5-6.5h-0.2c-3,5-7.5,7.5-13.6,7.5c-4.2,0-7.6-1.3-10.1-4
			c-3-3.2-4.5-8.1-4.5-14.7v-25.2h9.5v23.7c0,8.2,2.8,12.4,8.5,12.4c4.2,0,7.2-2.1,8.8-6.2c0.4-1.1,0.6-2.3,0.6-3.6v-26.2h9.5V185
			c0,4.1,0.1,8.2,0.3,12.4H302z M360.5,197.4H351v-24.6c0-7.6-2.9-11.4-8.7-11.4c-2.8,0-5.1,1-6.9,3.1c-1.8,2.1-2.7,4.5-2.7,7.4
			v25.4h-9.5v-30.6c0-3.8-0.1-7.9-0.4-12.3h8.4l0.4,6.7h0.3c1.1-2.1,2.8-3.8,4.9-5.2c2.6-1.6,5.5-2.4,8.7-2.4c4,0,7.3,1.3,10,3.9
			c3.3,3.2,4.9,7.9,4.9,14.2V197.4z M369.1,116.4h-4.5v-11.6c0-3.6-1.4-5.4-4.1-5.4c-1.3,0-2.4,0.5-3.2,1.5c-0.8,1-1.2,2.1-1.2,3.5
			v12h-4.5v-14.5c0-1.8-0.1-3.7-0.2-5.8h4l0.2,3.2h0.1c0.5-1,1.3-1.8,2.3-2.4c1.2-0.8,2.6-1.1,4.1-1.1c1.9,0,3.5,0.6,4.7,1.8
			c1.6,1.5,2.3,3.7,2.3,6.7V116.4z M408.8,178.2h-28.6c0.1,4.2,1.5,7.5,4.2,9.7c2.4,2,5.5,3,9.4,3c4.2,0,8.1-0.7,11.6-2l1.5,6.6
			c-4.1,1.8-8.9,2.6-14.4,2.6c-6.6,0-11.9-2-15.7-5.9c-3.8-3.9-5.7-9.2-5.7-15.8c0-6.5,1.8-11.9,5.3-16.2c3.7-4.6,8.7-6.9,15-6.9
			c6.2,0,10.9,2.3,14,6.9c2.5,3.6,3.8,8.1,3.8,13.5C409.2,175.6,409.1,177.1,408.8,178.2z M441.6,194.7c-2.9,2.4-7,3.6-12.2,3.6
			c-4.9,0-9-1-12.4-2.9l2-7.1c3.3,2,6.8,3,10.5,3c4.9,0,7.3-1.8,7.3-5.4c0-1.6-0.5-2.9-1.6-3.9c-1.1-1-2.9-2-5.6-3
			c-7.7-2.8-11.5-6.9-11.5-12.4c0-3.7,1.4-6.8,4.2-9.3c2.8-2.5,6.6-3.7,11.2-3.7c4.2,0,7.9,0.9,10.9,2.6l-2,6.9
			c-2.8-1.6-5.7-2.5-8.7-2.5c-2,0-3.6,0.5-4.7,1.4c-1.1,0.9-1.7,2.1-1.7,3.6c0,1.5,0.6,2.7,1.8,3.6c1,0.9,2.9,1.9,5.8,2.9
			c7.4,2.8,11.1,7.1,11.1,12.9C446,189,444.5,192.2,441.6,194.7z"/>
		<path d="M335.6,113.5c1.7,0,3.1-0.8,4-2.5c0.8-1.4,1.3-3,1.3-4.8c0-1.9-0.4-3.5-1.2-4.8c-0.9-1.6-2.3-2.4-4-2.4
			c-1.8,0-3.2,0.8-4.1,2.4c-0.8,1.3-1.2,3-1.2,4.9c0,1.9,0.4,3.5,1.2,4.8C332.5,112.7,333.8,113.5,335.6,113.5z"/>
	</g>
</g>
<g id="レイヤー_14">
</g>
</svg>
